<svg xmlns="http://www.w3.org/2000/svg" width="30.182" height="32.839" viewBox="0 0 30.182 32.839">
  <path id="Icon_awesome-copyright" data-name="Icon awesome-copyright" d="M15.654.563C7.319.563.563,7.914.563,16.982S7.319,33.4,15.654,33.4s15.091-7.351,15.091-16.42S23.988.563,15.654.563ZM22.782,23.52A8.819,8.819,0,0,1,16.1,26.548c-5.154,0-8.792-4.188-8.792-9.638,0-5.383,3.773-9.494,8.748-9.494a8.45,8.45,0,0,1,6.293,2.576.849.849,0,0,1,.075.968L21.06,13.254a.7.7,0,0,1-1.11.152,5.958,5.958,0,0,0-3.766-1.581c-2.806,0-4.5,2.223-4.5,5.037,0,2.622,1.553,5.276,4.52,5.276a5.8,5.8,0,0,0,3.988-1.9.694.694,0,0,1,1.126.07l1.494,2.223a.85.85,0,0,1-.034.984Z" transform="translate(-0.563 -0.563)" fill="#662d91"/>
</svg>
