<?xml version="1.0" encoding="utf-8"?>
<!-- Generator: Adobe Illustrator 26.0.0, SVG Export Plug-In . SVG Version: 6.00 Build 0)  -->
<svg version="1.1" id="Layer_1" xmlns="http://www.w3.org/2000/svg" xmlns:xlink="http://www.w3.org/1999/xlink" x="0px" y="0px"
	 viewBox="0 0 43 41.3" style="enable-background:new 0 0 43 41.3;" xml:space="preserve">
<style type="text/css">
	.st0{fill:none;stroke:#FFFFFF;stroke-width:3;stroke-linecap:round;stroke-linejoin:round;}
</style>
<g id="Icon_feather-instagram" transform="translate(1.5 1.5)">
	<path id="Path_229" class="st0" d="M10,0h20c5.4-0.1,9.9,4.2,10,9.6v19.2c-0.1,5.4-4.6,9.7-10,9.6H10c-5.4,0.1-9.9-4.2-10-9.6V9.6
		C0.1,4.2,4.6-0.1,10,0z"/>
	<path id="Path_230" class="st0" d="M30,17.6c0.8,5.5-2.9,10.6-8.4,11.4c-5.5,0.8-10.6-2.9-11.4-8.4C9.3,15.1,13.1,10,18.6,9.2
		c1-0.1,2-0.1,3,0C25.9,9.9,29.3,13.3,30,17.6z"/>
	<path id="Path_231" class="st0" d="M31,8.6L31,8.6"/>
</g>
</svg>
