<svg id="Layer_2" data-name="Layer 2" xmlns="http://www.w3.org/2000/svg" viewBox="0 0 472.01 151.38"><defs><style>.cls-1{fill:#662d91;}</style></defs><path class="cls-1" d="M162.74,417.63,146.36,396a4,4,0,0,1,2.26-3.78c2.54-1.41,11.29-8.75,14.68-12.3,6.5-7.22,7.34-21.3,8.19-24.69.85-3.67-4-18.07-4.52-18.92-1.41-4.8-19.2-20.61-19.2-20.61S126.6,306,120.38,306H58.55L57.6,450.1H96.38V402.38H108l33.6,47.72h44.33ZM112.2,378.05c0,.33-15.82,0-15.82,0V330.1h11.3s23.72,1.7,24.85,22.59C132.81,353,132.81,374.33,112.2,378.05Z" transform="translate(-57.6 -306)"/><path class="cls-1" d="M231.63,334.62A61.38,61.38,0,1,0,293,396,61.38,61.38,0,0,0,231.63,334.62Zm1.55,89.79c-.56,0-5.36,1.13-7.9,0s-9.46-6.21-11.86-14.69c-2.12-9-3.81-19.48-1-27.24-.14-.85,3.11-11.58,6.92-14.4s3.1-3.39,6.63-4.24l3.53-.84s15,.56,18.21,21.17C247.87,384.6,251.82,418.34,233.18,424.41Z" transform="translate(-57.6 -306)"/><polygon class="cls-1" points="277.14 144.43 238.64 144.43 238.64 31.44 277.14 31.44 277.14 76.34 321.42 31.44 362.64 31.44 362.64 36.34 312.76 86.22 371.11 144.43 323.3 144.43 277 98.64 277.14 144.43"/><path class="cls-1" d="M419.87,337.44h38.21L457.7,396s.19,19.75,3.39,22.2c-.19.37,6.4,7,12.61,4.89.38-.19,7.91-1.13,12.42-6s5.09-4.33,5.09-10.36V337.44h38.4V449.82h-8.29L504,435.51a29.64,29.64,0,0,1-9.23,8.1c-5.83,3.2-16,7.71-16,7.71L469,452.64l-13.17-.94-10.73-2.45s-10.35-4.33-11.11-5.64-13.17-12.05-14.11-25Z" transform="translate(-57.6 -306)"/></svg>