<svg xmlns="http://www.w3.org/2000/svg" width="40" height="38.333" viewBox="0 0 40 38.333">
  <path id="Icon_awesome-youtube" data-name="Icon awesome-youtube" d="M40.214,10.5a6.242,6.242,0,0,0-3.536-4.851C33.558,4.5,21.05,4.5,21.05,4.5S8.542,4.5,5.422,5.647A6.243,6.243,0,0,0,1.886,10.5C1.05,14.777,1.05,23.705,1.05,23.705s0,8.928.836,13.208a6.109,6.109,0,0,0,3.536,4.774c3.119,1.147,15.628,1.147,15.628,1.147s12.508,0,15.628-1.147a6.109,6.109,0,0,0,3.536-4.774c.836-4.279.836-13.208.836-13.208s0-8.928-.836-13.208ZM16.959,31.812V15.6l10.455,8.106L16.959,31.812Z" transform="translate(-1.05 -4.5)" fill="#662d91"/>
</svg>
