<?xml version="1.0" encoding="utf-8"?>
<!-- Generator: Adobe Illustrator 26.0.0, SVG Export Plug-In . SVG Version: 6.00 Build 0)  -->
<svg version="1.1" id="Layer_1" xmlns="http://www.w3.org/2000/svg" xmlns:xlink="http://www.w3.org/1999/xlink" x="0px" y="0px"
	 viewBox="0 0 40 38.3" style="enable-background:new 0 0 40 38.3;" xml:space="preserve">
<style type="text/css">
	.st0{fill:#FFFFFF;}
</style>
<path id="Icon_awesome-youtube" class="st0" d="M39.2,6c-0.3-2.1-1.6-3.9-3.5-4.9C32.5,0,20,0,20,0S7.5,0,4.4,1.1
	C2.4,2.1,1.1,3.9,0.8,6C0,10.3,0,19.2,0,19.2s0,8.9,0.8,13.2c0.3,2.1,1.6,3.9,3.5,4.8C7.5,38.3,20,38.3,20,38.3s12.5,0,15.6-1.1
	c1.9-0.9,3.3-2.7,3.5-4.8C40,28.1,40,19.2,40,19.2S40,10.3,39.2,6L39.2,6z M15.9,27.3V11.1l10.5,8.1L15.9,27.3z"/>
</svg>
