<svg id="Layer_2" data-name="Layer 2" xmlns="http://www.w3.org/2000/svg" viewBox="0 0 472.01 151.38"><defs><style>.cls-1{fill:#662d91}</style></defs><path class="cls-1" d="M162.74 417.63 146.36 396a4 4 0 0 1 2.26-3.78c2.54-1.41 11.29-8.75 14.68-12.3 6.5-7.22 7.34-21.3 8.19-24.69.85-3.67-4-18.07-4.52-18.92-1.41-4.8-19.2-20.61-19.2-20.61s-21.17-9.7-27.39-9.7H58.55l-.95 144.1h38.78v-47.72H108l33.6 47.72h44.33Zm-50.54-39.58c0 .33-15.82 0-15.82 0V330.1h11.3s23.72 1.7 24.85 22.59c.28.31.28 21.64-20.33 25.36Z" transform="translate(-57.6 -306)"/><path class="cls-1" d="M231.63 334.62A61.38 61.38 0 1 0 293 396a61.38 61.38 0 0 0-61.37-61.38Zm1.55 89.79c-.56 0-5.36 1.13-7.9 0s-9.46-6.21-11.86-14.69c-2.12-9-3.81-19.48-1-27.24-.14-.85 3.11-11.58 6.92-14.4s3.1-3.39 6.63-4.24l3.53-.84s15 .56 18.21 21.17c.16.43 4.11 34.17-14.53 40.24Z" transform="translate(-57.6 -306)"/><path class="cls-1" d="M277.14 144.43h-38.5V31.44h38.5v44.9l44.28-44.9h41.22v4.9l-49.88 49.88 58.35 58.21H323.3L277 98.64l.14 45.79z"/><path class="cls-1" d="M419.87 337.44h38.21L457.7 396s.19 19.75 3.39 22.2c-.19.37 6.4 7 12.61 4.89.38-.19 7.91-1.13 12.42-6s5.09-4.33 5.09-10.36v-69.29h38.4v112.38h-8.29L504 435.51a29.64 29.64 0 0 1-9.23 8.1c-5.83 3.2-16 7.71-16 7.71l-9.77 1.32-13.17-.94-10.73-2.45s-10.35-4.33-11.11-5.64-13.17-12.05-14.11-25Z" transform="translate(-57.6 -306)"/></svg>