<?xml version="1.0" encoding="utf-8"?>
<!-- Generator: Adobe Illustrator 26.0.0, SVG Export Plug-In . SVG Version: 6.00 Build 0)  -->
<svg version="1.1" id="Layer_1" xmlns="http://www.w3.org/2000/svg" xmlns:xlink="http://www.w3.org/1999/xlink" x="0px" y="0px"
	 viewBox="0 0 30.2 32.8" style="enable-background:new 0 0 30.2 32.8;" xml:space="preserve">
<style type="text/css">
	.st0{fill:#FFFFFF;}
</style>
<path id="Icon_awesome-copyright" class="st0" d="M15.1,0C6.8,0,0,7.4,0,16.4s6.8,16.4,15.1,16.4s15.1-7.4,15.1-16.4S23.4,0,15.1,0z
	 M22.2,23c-1.7,1.9-4.1,3-6.7,3c-5.2,0-8.8-4.2-8.8-9.6c0-5.4,3.8-9.5,8.7-9.5c2.4-0.1,4.6,0.9,6.3,2.6c0.2,0.3,0.3,0.7,0.1,1
	l-1.4,2.3c-0.2,0.3-0.6,0.5-1,0.3c-0.1,0-0.1-0.1-0.2-0.1c-1-1-2.4-1.5-3.8-1.6c-2.8,0-4.5,2.2-4.5,5c0,2.6,1.6,5.3,4.5,5.3
	c1.5-0.1,3-0.8,4-1.9c0.2-0.3,0.7-0.3,1-0.1c0.1,0,0.1,0.1,0.1,0.2l1.5,2.2C22.4,22.3,22.4,22.7,22.2,23L22.2,23z"/>
</svg>
