<svg xmlns="http://www.w3.org/2000/svg" width="43" height="41.333" viewBox="0 0 43 41.333">
  <g id="Icon_feather-instagram" data-name="Icon feather-instagram" transform="translate(1.5 1.5)">
    <path id="Path_229" data-name="Path 229" d="M13,3H33a9.8,9.8,0,0,1,10,9.583V31.75a9.8,9.8,0,0,1-10,9.583H13A9.8,9.8,0,0,1,3,31.75V12.583A9.8,9.8,0,0,1,13,3Z" transform="translate(-3 -3)" fill="none" stroke="#662d91" stroke-linecap="round" stroke-linejoin="round" stroke-width="3"/>
    <path id="Path_230" data-name="Path 230" d="M31.977,20.461a10.015,10.015,0,1,1-8.434-8.417,9.986,9.986,0,0,1,8.434,8.417Z" transform="translate(-2.003 -2.825)" fill="none" stroke="#662d91" stroke-linecap="round" stroke-linejoin="round" stroke-width="3"/>
    <path id="Path_231" data-name="Path 231" d="M26.25,9.75h0" transform="translate(4.75 -1.125)" fill="none" stroke="#662d91" stroke-linecap="round" stroke-linejoin="round" stroke-width="3"/>
  </g>
</svg>
